<svg width="40" height="40" viewBox="0 0 40 40" xmlns="http://www.w3.org/2000/svg">
    <rect width="40" height="40" rx="6" ry="6" fill="#FFFFFF"/>
    <path d="M20.4 16.2V21H29.5C29.2 22.7 28.1 25.2 25.6 26.8C24.2 27.8 22.4 28.3 20.5 28.3C17.3 28.3 14.7 26.2 13.7 23.4C13.4 22.4 13.3 21.4 13.3 20.4C13.3 19.4 13.4 18.4 13.7 17.4C14.7 14.6 17.3 12.5 20.5 12.5C22.2 12.5 23.5 13.1 24.3 13.8L27.5 10.8C25.7 9.2 23.3 8.2 20.5 8.2C15.9 8.2 12.2 11.3 10.7 15.3C10.2 16.8 10 18.5 10 20.4C10 22.3 10.2 24 10.7 25.5C12.2 29.5 15.9 32.5 20.5 32.5C23.3 32.5 25.7 31.6 27.5 30.2C29.7 28.5 30.8 25.7 30.8 23.2C30.8 22.3 30.7 21.6 30.5 20.9H20.4V16.2Z" fill="#4285F4"/>
    <path d="M10.7 15.3C11.7 12.7 13.5 10.8 15.9 9.8C16.8 9.3 17.7 8.9 18.6 8.6C20.4 8 22.3 8 24.1 8.6L24.1 8.6L27.5 10.8C25.7 9.2 23.3 8.2 20.5 8.2C15.9 8.2 12.2 11.3 10.7 15.3Z" fill="#34A853"/>
    <path d="M27.5 10.8L24.3 13.8C23.5 13.1 22.2 12.5 20.5 12.5C17.3 12.5 14.7 14.6 13.7 17.4C13.4 18.4 13.3 19.4 13.3 20.4C13.3 21.4 13.4 22.4 13.7 23.4C14.7 26.2 17.3 28.3 20.5 28.3C22.4 28.3 24.2 27.8 25.6 26.8C27.2 25.7 28.1 23.8 28.4 22H20.4V16.2H29.5C29.2 14.9 28.7 13.8 28 12.8C27.6 12.3 27 11.8 26.4 11.4L27.5 10.8Z" fill="#FBBC05"/>
    <path d="M20.4 32.5C17.6 32.5 15.3 31.6 13.5 30.2L13.5 30.2L13.7 30.3C12.2 29.5 10.9 28.3 9.8 26.8L10.7 25.5C12.2 29.5 15.9 32.5 20.4 32.5Z" fill="#EA4335"/>
  </svg>
  